<svg xmlns="http://www.w3.org/2000/svg" width="42.251" height="45.43" viewBox="0 0 42.251 45.43">
    <defs>
        <style>
            .cls-1{fill:#9d6836}.cls-2{fill:#ed3237}.cls-3{fill:#ce373b}.cls-4{fill:#f37563}
        </style>
    </defs>
    <g id="Apple">
        <path id="Path_69" d="M1008 4940.194a23.674 23.674 0 0 1 2.036-9.612c1.018-2.148 3.053-6.22 5.541-6.9.791-.226 1.809.566 2.714.792.452 0 2.714-.113 2.6.566 0 .678-3.845 1.582-4.523 1.921a11.4 11.4 0 0 0-4.636 5.654 18.94 18.94 0 0 0-2.035 8.255c-1.018.792-1.7-.565-1.7-.565z" class="cls-1" data-name="Path 69" transform="translate(-987.611 -4923.644)"/>
        <path id="Path_70" d="M849.553 5041.433c-16.736-12.1-28.271 9.952-16.623 22.164 10.4 10.97 12.213 5.429 15.832 5.429s9.725 6.332 19.337-9.5c7.237-11.873-3.619-28.949-18.546-18.093z" class="cls-2" data-name="Path 70" transform="translate(-828.147 -5024.996)"/>
        <path id="Path_71" d="M862.677 5060.069c-6.559 1.583-13.118 2.488-19.677 1.583-5.767 0-9.838-9.838-8.142-17.188.565-2.488 1.7-5.881 4.3-7.464-10.743.453-15.832 16.059-6.785 25.67 10.4 10.97 12.213 5.427 15.832 5.427s9.725 6.333 19.337-9.5a15.2 15.2 0 0 0 1.357-2.714 13.134 13.134 0 0 1-6.22 4.071z" class="cls-3" data-name="Path 71" transform="translate(-827.7 -5024.181)"/>
        <path id="Path_72" d="M1014.333 5083.608c-3.28-4.75.565-6.333 4.749-8.82 6.333-3.619 14.814 4.184 10.856 10.517-3.166 5.089-12.778 2.261-15.605-1.697z" class="cls-4" data-name="Path 72" transform="translate(-992.135 -5056.88)"/>
    </g>
</svg>
