<svg xmlns="http://www.w3.org/2000/svg" width="481.839" height="559.96" viewBox="0 0 481.839 559.96">
    <defs>
        <style>
            .cls-1{fill:#62bb51}.cls-2{fill:#008f4f}.cls-3{fill:#9b5835}.cls-4{fill:#ac6842}.cls-5{fill:#915036}.cls-6{fill:#51a44b}.cls-7{fill:#9d6836}.cls-8{fill:#ed3237}.cls-9{fill:#ce373b}.cls-10{fill:#f37563}
        </style>
    </defs>
    <g id="AppleTree">
        <path id="Path_1" d="M167.667 6272.226c8.533-10.489 32.532-13.866 43.2-17.777 107.374-38.4 207.46-41.955 327.812-1.778 14.044 4.622 31.821 14.578 29.155 19.91-9.777 19.556-33.777 11.911-47.643 10.313-23.466-2.667-33.954 16.355-60.976 15.643-18.311-.533-35.377-6.577-53.865-5.51-14.044.89-27.377 6.935-41.065 8-17.6 1.424-109.33 5.512-113.419-7.11 8.178-3.734 17.6-5.867 21.51-14.224-25.955-17.6-76.8 9.958-107.374-.177a12.692 12.692 0 0 1 3.022-7.467z" class="cls-1" data-name="Path 1" transform="translate(-135.65 -5742.841)"/>
        <path id="Path_2" d="M822.787 4678.683a7.9 7.9 0 0 1-3.555 10.665 14.735 14.735 0 0 1-12.8.356c-7.111-2.665-6.222-8.355-13.688-8.711-.533-3.377 2.844-8.178 7.644-9.421 4.622-1.423 8.711-.89 11.2-.711 2.667.356 3.2.711 3.733 2.133.711 1.423 2.844 2.845 6.222 4.445a10.637 10.637 0 0 1-8.533 3.2c-4.089-.356-8-1.6-9.955-1.778a72.622 72.622 0 0 0 9.6 2.845c3.911.889 8.533-.889 10.133-3.377z" class="cls-2" data-name="Path 2" transform="translate(-651.752 -4465.556)"/>
        <path id="Path_3" d="M1818.178 4836.82c3.555-8.89 12.444-10.488 20.088-5.333 7.822 5.156 10.489 16.355 7.467 22.931-17.244-2.843-23.289 2.135-27.733-15.642 4.089 0 17.066 3.2 20.266 6.4-3.378-4.09-14.044-8.533-20.088-8.356z" class="cls-2" data-name="Path 3" transform="translate(-1494.792 -4595.426)"/>
        <path id="Path_4" d="M1249 6396.178z" class="cls-3" data-name="Path 4" transform="translate(-1026.944 -5884.217)"/>
        <path id="Path_5" d="M1318.178 4357c0 .177-.178.355-.178.534 0-.179.178-.357.178-.534z" class="cls-3" data-name="Path 5" transform="translate(-1083.678 -4207.693)"/>
        <path id="Path_6" d="M805.9 4099.818c-11.2-9.6-60.442-4.444-95.819 19.2-11.2 7.465-30.221 19.554-37.865 17.776-5.511-1.244-6.933-19.377-7.289-32.177-.533-17.066-3.378-34.487 1.778-51.02a104.845 104.845 0 0 1 18.666-35.2c15.822-19.734 32.532-31.643 64-20.622-15.822-14.755-44.088-8.71-57.776 3.555-8.711 7.822-15.822 16-23.644 24.889-5.689 6.4-6.4 7.288-6.577-.355-.356-9.245-.356-17.778-.178-27.022.178-12.978 1.778-35.021-3.022-50.843-2.133 24.355-5.866 62.931-7.644 68.8-1.956 5.866-4.978-5.333-10.666-14.4-7.289-11.734-30.577-40.532-68.087-36.977 51.376 2.49 77.509 62.576 75.02 90.131a383.74 383.74 0 0 0-1.422 40.531c-.355 14.4-9.6 14.579-21.51 3.377-17.6-16.709-78.042-50.487-117.863-37.332 38.577-3.2 95.286 22.577 125.152 59.554-12.266-5.155-37.332-7.288-42.843 5.511 9.066-9.422 30.4-5.334 39.821 4.268 19.022 19.553 8.178 58.664 8.711 90.84.533 28.978-4.267 56.711-7.644 85.509-2.844 23.822-14.044 42.133-38.577 51.554-15.822 6.045-35.91 2.489-48.532 15.644 17.422-7.11 38.754 0 56.354-4.8 14.044-3.909 41.777-24.533 37.154-9.066-2.133 7.11-.711 13.866 2.667 21.866 5.156-13.155 10.489-22.754 21.866-24.532 16-2.489 29.333 3.912 43.732 8.356 14.577 4.444 35.554 0 50.132 5.51-3.2-6.578-19.2-10.489-24.177-11.023-9.956-1.065-17.422-6.043-26.666-10.666-19.733-9.778-23.822-31.644-25.777-52.621-3.911-41.064-10.844-86.752-1.244-122.663 4.8-17.6 18.311-31.644 32.355-43.554a141.142 141.142 0 0 1 47.821-26.132c12.622-4.088 34.31-8.712 49.6-6.223z" class="cls-3" data-name="Path 6" transform="translate(-416.029 -3871.403)"/>
        <path id="Path_7" d="M1355.464 4194.111a98.847 98.847 0 0 1-1.6 19.2c-1.066 5.867 0 9.6.356 15.11.889 14.578-1.6 29.511.355 44.088 2.666-7.467 2.311-16.711 4.089-24.712 1.422-6.577 5.866-12.442 6.044-19.376-3.556.89-3.911 5.688-6.044 8.178-6.933-4.977-2.844-21.865-2.311-28.977.356-4.623 2.844-17.245-.889-20.622v7.111z" class="cls-4" data-name="Path 7" transform="translate(-1112.787 -4067.914)"/>
        <path id="Path_8" d="M1317.3 4781.711c-.711 3.377 1.244 3.377 2.489 6.4 1.422 3.556 1.244 7.467 1.244 11.378.178 8.888 1.956 17.421 1.6 26.488-.356 8.888-4.8 22.931-1.6 31.109.534-1.066 1.956-2.133 2.667-3.021 3.733 5.333.533 15.821.711 21.866.178 8-.888 17.6 1.778 25.244 1.778-7.467 1.6-16.356 2.134-24.178.533-6.223 2.133-11.911 1.6-18.31-.356-5.334.711-11.023-.533-16-1.6-5.688-6.044-18.134 1.067-21.865 1.245 3.555.178 7.644 2.844 10.843 4.622-3.556 5.867-11.378 9.066-16.355 3.378-5.155 9.244-6.578 12.622-11.555-5.866.178-15.288 12.8-20.266 9.778-1.244-.712-3.378-7.111-3.911-8.71-3.022-8.711-1.778-19.734-2.666-28.977-.534-6.045-.534-13.333-3.022-18.846-1.244 3.022-.889 6.756-1.422 10.134-.889 5.511-5.156 9.422-6.222 14.754z" class="cls-4" data-name="Path 8" transform="translate(-1082.978 -4536.583)"/>
        <path id="Path_9" d="M1350.427 5555.535c1.244 10.488 2.489 22.043 2.667 32.531.178 10.668-2.133 21.511-.889 32.178.889 8 4.267 14.755 5.156 22.755 1.244 11.021 6.222 17.421 11.022 27.376-6.578-5.333-11.911-8.534-14.755-17.066-1.6-4.622-.889-9.954-7.644-8.177-1.6-5.688.889-11.912.533-17.778-.355-4.977-1.066-12.267-2.311-17.065-1.777-6.4-2.667-6.4-1.067-13.867 1.245-5.688 1.067-11.732 1.956-17.066 1.244 3.912.889 8.179 3.022 11.556 4.444-9.955-.889-25.066 2.311-35.909l.356.355z" class="cls-4" data-name="Path 9" transform="translate(-1103.661 -5192.722)"/>
        <path id="Path_10" d="M747.193 4884.078c-14.755-5.333-30.577-3.557-45.687-6.046-11.022-1.776-29.51-7.82-37.51-16.353-4.444-4.8-2.667-6.045-9.066-8.535-1.955-.71-3.2 1.068-5.155-.355-2.844-1.956-2.667-8.178-2.844-11.02-.178-6.934 3.022-14.757.355-21.511-.889.534-2.667.71-3.555 1.244-6.755-12.621 5.155-30.576 6.044-43.731.889-12.267 7.289-32.355 2.489-43.554-.356 2.311-2.133 2.844-3.022 4.444-3.2-4.623.889-9.955 0-15.111-.356-2.489-2.133-3.912-2.844-6.045-4.444-12.977-.178-24.532 2.489-37.332a63.579 63.579 0 0 0-1.067-30.577c-3.378-11.377-11.377-16.533-20.088-23.644-12.089-9.776-19.733-18.309-33.243-25.955-11.2-6.4-31.466-17.6-43.91-20.8-16.177-4.089-32.71-5.333-46.576-.534 38.577-3.2 95.286 22.578 125.152 59.554-12.266-5.155-37.332-7.288-42.843 5.512 9.066-9.423 30.4-5.334 39.821 4.266 19.022 19.554 8.178 58.666 8.711 90.842.533 28.977-4.266 56.709-7.644 85.508-2.844 23.821-14.044 42.132-38.577 51.554-15.822 6.044-35.91 2.488-48.532 15.644 17.422-7.11 38.755 0 56.354-4.8 14.044-3.909 41.776-24.531 37.154-9.065-2.133 7.111-.711 13.867 2.489 21.865 5.156-13.154 10.489-22.576 21.866-24.354 16-2.489 29.332 3.912 43.732 8.357 14.577 4.443 35.554 0 50.132 5.509a11.517 11.517 0 0 0-4.977-4.621z" class="cls-5" data-name="Path 10" transform="translate(-414.385 -4387.402)"/>
        <path id="Path_11" d="M874.178 4045.281c51.376 2.489 77.509 62.576 75.02 90.131a383.71 383.71 0 0 0-1.422 40.534c-.178 7.287-3.378 16.354-16.355 7.643 2.667 5.155 15.466 12.621 17.6 7.288 4.267-9.954 7.822-21.154 7.466-32-.178-4.444-.889-8.889-.889-13.333 0-6.222 1.067-12.089 1.6-18.311.711-7.823-1.778-12.977-3.733-20.087-.711-3.023-.356-2.666-2.489-4.267-3.556-2.845-4.622-3.733-6.044-7.822a73.66 73.66 0 0 0-6.578-12.267 145.711 145.711 0 0 0-17.777-23.821c-11.555-8.532-27.2-15.465-46.576-13.511z" class="cls-5" data-name="Path 11" transform="translate(-718.609 -3951.262)"/>
        <path id="Path_12" d="M1463.8 4188.96c-28.977 4.8-52.443 32.533-52.8 61.51a105.253 105.253 0 0 1 18.488-34.31c14.577-18.133 29.866-29.687 57.065-22.756-6.755-4.621-14.755-6.755-22.577-4.266z" class="cls-5" data-name="Path 12" transform="translate(-1160.145 -4068.808)"/>
        <path id="Path_13" d="M1451.926 4830.487c-27.2 19.021-34.843 52.088-34.133 83.377.711-13.689 3.022-27.022 8-39.29 6.933-16.888 18.31-31.643 32.355-43.554a141.151 141.151 0 0 1 47.82-26.132 154.2 154.2 0 0 1 31.643-6.577c-32.175-3.023-58.663 13.155-85.685 32.176z" class="cls-5" data-name="Path 13" transform="translate(-1165.694 -4570.252)"/>
        <path id="Path_14" d="M1315.533 4054.776c8.711-21.155 10.133-43.909 7.111-65.776-2.133 24-5.333 56.177-7.111 61.51a8.658 8.658 0 0 1-.534 1.244 3.027 3.027 0 0 1 .534 3.022z" class="cls-5" data-name="Path 14" transform="translate(-1081.211 -3905.113)"/>
        <path id="Path_15" d="M1374.473 3825.754c-1.778-11.555-2.134-26.132 7.822-34.309 3.556-3.2 11.022-9.778 16.178-9.423 1.066 0 2.311 1.066 2.489 1.066 1.777.178 1.6.534 4.089-1.066 4.089-2.667 8.355-4.978 12.266-8 3.555-2.844 8-7.111 9.955-11.021 11.2 4.622 11.911 26.132 10.311 35.91-2.312 14.577-21.866 37.155-38.577 30.4-3.911-1.6-14.044-11.733-20.8-5.156 1.422-8.533 16.888-13.866 24-16.533 11.022-3.022 17.777-12.622 19.555-17.244-3.378 5.334-9.778 10.844-19.911 14.045-8.533 2.667-23.822 9.6-27.2 20.8z" class="cls-6" data-name="Path 15" transform="translate(-1129.307 -3719.29)"/>
        <path id="Path_16" d="M1860.067 4086.468c12.8-16.356 21.866-20.089 30.754-19.912 8.533.711 23.288 2.667 39.465-3.556 3.556 8.178 3.556 19.2-1.777 29.333a45.422 45.422 0 0 1-26.844 21.688c-22.933 6.756-42.666-5.51-42.666-23.643 4.978 1.956 16.178 3.912 27.021 2.489 11.022-1.244 20.8-6.222 24.71-9.245a58.086 58.086 0 0 1-24.355 6.045c-9.6.355-19.555-1.6-26.488-3.379z" class="cls-6" data-name="Path 16" transform="translate(-1528.503 -3965.959)"/>
        <path id="Path_17" d="M2065.862 4338.834a6.339 6.339 0 0 1-.711-1.6c7.111-1.422 11.733-1.422 17.777-6.043 14.044-10.667 29.333 3.554 42.31 9.776-1.777 16.533-17.066 30.933-34.31 31.821-17.066 1.6-33.422-12.8-27.555-30.22 3.378 2.489 11.733 5.689 20.089 6.222a65.705 65.705 0 0 0 20.266-1.956c-7.644.89-32.532.178-38.043-8z" class="cls-6" data-name="Path 17" transform="translate(-1695.545 -4183.306)"/>
        <path id="Path_18" d="M908.3 3779.258c-6.4.71-13.688-3.023-17.066-5.688-5.689-4.267-12.622-15.467-9.955-25.6 2.844-12.8 13.866-16.178 17.955-30.933 8.177-1.421 17.6 4.623 22.4 12.622 4.978 7.644 7.822 16 8.178 21.689.178 5.865-.356 8.888-3.733 10.311-3.2 1.244-9.244 6.756-13.511 14.933-7.111-2.844-7.466-32.177-8-39.288-.355 4.623-1.778 11.555-2.311 19.022-.533 7.288 0 17.777 6.222 22.755z" class="cls-6" data-name="Path 18" transform="translate(-724.109 -3681.326)"/>
        <path id="Path_19" d="M577.109 3883.608c-12.444 17.6-31.821 15.643-39.11 10.311-8.533-4.979-7.466-16.889-24-24.178.178-8 7.466-16 18.133-19.377a53.028 53.028 0 0 1 29.155-.888c16 4.622 18.133 12.8 17.066 30.221-7.466-1.6-33.066-10.667-41.243-11.022 9.778 2.489 27.555 12.978 40.177 14.933z" class="cls-6" data-name="Path 19" transform="translate(-422.607 -3789.055)"/>
        <path id="Path_20" d="M2346 4687.1c5.511-4.623 8-8.711 8.889-14.221.355-2.845.355-6.222 2.311-8.355 6.578-8 21.688-5.511 29.865-1.778a42.831 42.831 0 0 1 21.51 23.109c4.089 10.135 2.133 21.512-3.2 27.024-16-9.068-26.844-2.312-34.133-4.089-8.177-.533-5.511-11.379-22.932-19.556 3.377-2.134 12.089-5.332 21.511-4.444a48.945 48.945 0 0 1 22.222 6.755 46.021 46.021 0 0 0-21.155-9.778c-7.645-1.6-17.422 1.423-24.71 5.333z" class="cls-6" data-name="Path 20" transform="translate(-1928.928 -4456.193)"/>
        <path id="Path_21" d="M1602.543 4625.843c-16.888-11.2-16.71-27.91-6.222-40.532 10.133-12.8 31.288-19.911 45.865-14.579-1.066 17.068-.177 30.4-4.267 40.179-4.089 9.6-13.155 16.354-31.288 16 2.134-8 11.733-33.6 17.422-40.178-7.822 7.111-19.021 27.021-21.332 39.11z" class="cls-6" data-name="Path 21" transform="translate(-1306.534 -4381.96)"/>
        <path id="Path_22" d="M1511 5044.926c.711-10.488 10.489-17.244 19.555-18.488 9.422-1.423 18.489 1.778 25.955 7.11 14.578 10.667 23.644 31.643 20.266 47.821-17.244-.888-32.888-.71-44.087-5.332-5.511-2.133-9.422-4.979-12.089-9.245s-3.733-10.133-8.355-18.133c3.911-1.066 13.689-.711 23.11 2.844a113.447 113.447 0 0 1 22.221 10.666c-8.355-7.467-31.11-22.221-46.576-17.421z" class="cls-6" data-name="Path 22" transform="translate(-1242.368 -4757.845)"/>
        <path id="Path_23" d="M326.47 4265.621c-5.689 8.355-16.888 11.021-26.666 6.222-9.777-4.623-16.533-14.579-18.844-24.533-4.978-20.267 4.977-40.887 17.955-50.31 10.311 10.844 24.177 18.844 27.021 34.132.889 4.623.533 10.489.889 15.645.355 4.8 2.133 12.265 6.933 15.11-9.244 1.778-19.91-7.112-24.533-14.577-5.866-8.177-8.711-18.311-9.777-22.755.533 5.868 2.133 15.29 6.933 24 4.267 8.888 13.155 15.822 20.444 17.244z" class="cls-2" data-name="Path 23" transform="translate(-229.921 -4076.137)"/>
        <path id="Path_24" d="M58.048 4540.775c-2.489 17.955-12.977 22.933-17.422 22.933-4.8-.533-19.022 1.243-32.532 9.066a32.07 32.07 0 0 1-8-25.066c1.067-9.776 7.111-20.087 16.355-26.309 9.244-6.4 20.977-7.468 29.332-4.089s12.977 10.844 13.333 19.554c-4.267-1.421-14.222-2.311-22.933 1.068-8.889 3.376-14.933 10.31-17.244 13.51a43.208 43.208 0 0 1 17.777-10.49c7.644-2.132 15.822-1.42 21.51-.355z" class="cls-6" data-name="Path 24" transform="translate(.102 -4337.959)"/>
        <path id="Path_25" d="M596.749 4372.61c-9.422-.177-16.177-5.69-18.311-12.621-2.311-6.934-.355-14.4 3.733-19.733 8.178-11.023 23.644-13.866 36.266-11.023 4.267 14.222 5.867 26.488 4.622 32.178-5.155 10.667-11.022 6.043-22.577 10.31a35.443 35.443 0 0 1 .533-14.755 64.077 64.077 0 0 1 5.867-14.577c-5.333 4.978-13.866 20.622-10.133 30.221z" class="cls-6" data-name="Path 25" transform="translate(-474.779 -4184.015)"/>
        <path id="Path_26" d="M741.046 4790.378c0 10.132-6.4 17.421-14.933 18.842-8.533 1.6-17.6-1.6-24-8a34.905 34.905 0 0 1-11.2-24.533c-.356-9.6 4.444-18.844 11.022-21.688 5.333 4.268 10.844 8.534 17.777 8.889 5.333.179 14.044 2.845 18.133 7.111 3.378 3.378 3.911 11.2 2.311 16.533a32.122 32.122 0 0 1-16.889-2.133 44.024 44.024 0 0 1-15.822-10.312c3.733 8.355 21.511 20.266 33.6 15.466z" class="cls-6" data-name="Path 26" transform="translate(-568.056 -4534.939)"/>
        <path id="Path_27" d="M1072.934 4525.976c-12.8-13.688-16.533-18.31-13.51-25.777 1.777-7.11 12.8-12.622 12.444-26.666 6.933-3.556 17.422 0 23.466 6.934a35.21 35.21 0 0 1 9.422 23.287c.711 15.468-12.088 29.333-28.443 24.179 6.044-6.4 7.644-30.577 4.8-37.155 1.067 8.711-2.844 26.844-8 35.2z" class="cls-6" data-name="Path 27" transform="translate(-870.256 -4302.36)"/>
        <path id="Path_28" d="M2140.275 4607.744c-2.845-.355-5.334-2.489-7.289-7.112-5.155-12.978 37.154-30.221 37.688-29.687 6.934 9.955 9.244 23.644 2.489 35.732a25.811 25.811 0 0 1-17.422 12.8c-8 1.423-14.933-3.2-15.822-9.244 3.555 1.065 11.733-1.422 15.822-7.29 4.444-5.334 6.933-11.91 8-14.755-3.378 6.756-14.933 20.977-23.644 19.556z" class="cls-6" data-name="Path 28" transform="translate(-1753.424 -4383.594)"/>
        <path id="Path_29" d="M669.222 5071.066c1.778-.356.533 17.778-.178 20.088-2.311 6.4-8 9.244-14.222 11.377-3.911 1.422-16.711 3.2-19.911 12.266-10.666-6.222-15.644-27.2-4.622-41.775 4.978-7.29 13.511-11.912 20.622-12.267 7.289-.533 12.977 3.023 15.288 8-4.089-.356-12.977 1.6-19.377 7.287a34.568 34.568 0 0 0-10.667 17.067c1.778-4.266 5.511-10.844 11.555-15.289 5.866-4.621 20.444-6.578 21.333-6.578z" class="cls-6" data-name="Path 29" transform="translate(-513.12 -4786.297)"/>
        <path id="Path_30" d="M1392.488 4762.38c-11.022-6.043-14.755-9.956-17.066-18.488-2.667-7.823-2.133-17.777-9.422-25.955 4.444-3.912 12.8-4.267 19.555-1.244a34.593 34.593 0 0 1 16.177 14.4c7.289 11.91 4.622 28.443-6.755 31.288.889-3.732 0-11.555-3.022-18.488a50.637 50.637 0 0 0-9.6-15.467c5.333 6.578 11.733 24 10.133 33.777z" class="cls-6" data-name="Path 30" transform="translate(-1123.145 -4501.789)"/>
        <path id="Path_31" d="M1355.6 4187.368c-4.8-3.555-6.755-10.311-2.489-16.709 4.089-6.4 11.911-9.245 16.889-9.423 11.2-1.421 14.044 6.934 24.177 2.312 3.2 4.266 1.777 12.8-3.911 17.777a39.027 39.027 0 0 1-14.577 8.532c-3.911 1.245-4.8 1.067-6.4-.177-1.777-1.421-5.689-1.777-11.2-1.777a15.816 15.816 0 0 1 9.244-10.134c5.511-2.31 11.733-3.554 14.4-4.444-3.555.71-9.066.89-14.755 2.667-5.866 1.599-10.665 6.932-11.378 11.376z" class="cls-6" data-name="Path 31" transform="translate(-1110.613 -4046.594)"/>
        <path id="Path_32" d="M1159.221 3995.732c-11.911 3.556-16.888.178-22.221-5.155-5.156-5.333-10.311-14.044-16-22.044 8.177-7.11 22.755-8 32.71-1.777 10.311 5.866 13.333 19.555 6.933 28.443-2.489-10.311-17.955-19.377-23.644-20.8 6.577 3.377 18.31 12.8 22.044 21.51z" class="cls-2" data-name="Path 32" transform="translate(-921.699 -3883.403)"/>
        <path id="Path_33" d="M2413.985 4479.435c-8.889-8.355-6.4-18.844 1.6-24.711 8-6.222 19.555-6.4 27.91-3.2-3.555 20.978-6.4 32.889-27.377 28.978 1.956-4.622 11.022-17.956 15.288-20.977-5.506 3.02-14.754 12.975-17.421 19.91z" class="cls-2" data-name="Path 33" transform="translate(-1980.202 -4283.729)"/>
        <path id="Path_34" d="M406.31 5033.717c7.111 9.78 2.844 19.734-6.222 24-8.889 4.621-20.444 2.667-28.088-2.133 7.466-20.089 12.444-31.11 32.177-23.288-2.667 4.089-14.222 15.645-18.844 17.777 5.866-1.955 16.888-9.954 20.8-16.356z" class="cls-2" data-name="Path 34" transform="translate(-305.851 -4760.86)"/>
        <path id="Path_35" d="M709.32 4152.179c-8.889 23.645-13.333 11.2-33.243 12.8-3.911-9.066 1.422-22.043 12.089-25.954 10.133-4.089 19.377.355 21.333 10.667-4.978-1.245-20.266 2.845-23.466 6.577 4.976-3.023 16.709-4.269 23.287-4.09z" class="cls-2" data-name="Path 35" transform="translate(-554.818 -4027.228)"/>
        <path id="Path_36" d="M1983.833 4623.444c-17.243-14.221-5.511-14.4-1.244-31.643 8.711-.711 18.133 7.466 18.488 17.422.533 9.776-5.867 16.177-15.111 14.933 2.489-3.733 3.378-17.956 1.066-21.51 1.245 5.154-1.066 15.288-3.199 20.798z" class="cls-2" data-name="Path 36" transform="translate(-1623.649 -4400.717)"/>
        <path id="Path_37" d="M1094.755 5279.908c7.644 9.245 4.622 18.844-3.2 23.821-7.822 5.333-19.555 5.156-27.555 1.421 3.911-20.266 8.177-33.242 28.621-26.487-2.844 3.911-12.267 16.71-16.533 19.376 5.689-2.489 14.933-11.91 18.666-17.954z" class="cls-2" data-name="Path 37" transform="translate(-874.832 -4964.029)"/>
        <path id="Path_38" d="M1123.359 5066.288c-10.844 5.334-20.267-.355-23.11-11.554-3.2-11.2 3.555-23.822 11.733-27.733 13.688 16.889 23.466 17.067 12.978 37.51-3.911-3.377-13.511-17.065-13.688-22.575-.356 6.577 6.044 19.554 11.91 24.353z" class="cls-6" data-name="Path 38" transform="translate(-903.97 -4758.586)"/>
        <path id="Path_39" d="M1083.91 4301.607c6.755 10.134-1.067 20.976-11.733 22.045-10.666 1.6-21.155-5.689-24.177-14.046 7.644-6.576 12.977-12.088 16.71-14.22 3.911-1.957 7.466-.179 17.422 4.621-2.311 3.91-15.644 11.377-20.622 11.2 5.867.888 18.489-3.378 22.577-9.6z" class="cls-6" data-name="Path 39" transform="translate(-861.676 -4156.39)"/>
        <path id="Path_40" d="M903.569 4475.156c-11.733 3.554-20.8-6.579-20.622-18.312-.355-11.733 7.644-22.755 16.177-26.843 6.044 8.888 10.844 16.889 12.8 23.109 1.778 6.4.355 11.734-6.4 20.622-3.911-4.089-9.777-21.687-9.066-27.554-1.422 6.932 1.422 22.399 7.111 28.978z" class="cls-6" data-name="Path 40" transform="translate(-725.956 -4267.716)"/>
        <path id="Path_41" d="M1234.616 3596.21c-20.621-4.444-27.377-25.6-20.266-45.687a55.341 55.341 0 0 1 21.155-27.555c10.311-7.466 24.532-7.466 30.933-1.777-6.222 7.645-5.866 15.466-5.156 21.511 1.422 12.8 4.977 22.932-5.689 34.665-3.556 3.912-19.555 14.222-16.533 20.8-3.733-8-2.489-22.222-1.956-30.755.356-11.377 3.2-22.755 5.511-27.732-7.644 11.556-12.266 40.888-8.178 56.531z" class="cls-6" data-name="Path 41" transform="translate(-996.206 -3517.123)"/>
        <path id="Path_42" d="M1426.457 4434.5c3.378-5.333 11.2-5.689 16.533-1.956 5.511 3.557 8.177 9.422 8.888 14.933 1.422 11.2-4.267 21.866-11.022 28.268-8.355-6.4-14.577-14.757-17.244-20.622-1.244-3.022-1.6-5.155-.533-7.289s3.022-5.155 2.844-10.844c2.312.533 6.933 3.733 9.422 9.244a55.633 55.633 0 0 1 4.622 13.688c-.178-6.222-3.2-23.288-13.51-25.244z" class="cls-2" data-name="Path 42" transform="translate(-1169.558 -4267.768)"/>
        <path id="Path_43" d="M1843.916 4347.534c11.022 5.688 14.4 9.777 15.822 15.11.711 2.489.355 4.978 1.066 8s4.623 6.045 9.6 7.646c-1.423 4.977-6.933 10.844-15.822 10.667s-16.71-6.222-20.444-12.444c-8-12.444-3.555-27.2 7.467-29.511-.711 3.376-.356 10.49 2.311 16.71 2.489 6.4 7.111 11.377 9.778 12.8-6.755-4.444-11.022-20.8-9.6-29.333z" class="cls-6" data-name="Path 43" transform="translate(-1504.708 -4199.472)"/>
        <path id="Path_44" d="M1757.905 3881.226a34.789 34.789 0 0 0 1.245 7.289c-10.666-6.222-16-16.889-17.244-21.511-2.489-9.244 2.311-21.865 8.711-28.621 11.911-13.688 32-17.421 46.576-13.688-.178 8-.356 15.466-1.956 23.289-1.066 5.866-1.422 11.2-6.578 15.289-4.977 3.91-11.2 5.156-16.355 8.711a25.737 25.737 0 0 0-10.311 14.4c-1.778-9.421 1.778-18.31 5.156-26.132a87.247 87.247 0 0 1 11.2-19.378c-11.2 8.712-21.333 25.421-20.622 40.533z" class="cls-2" data-name="Path 44" transform="translate(-1431.675 -3768.896)"/>
        <path id="Path_45" d="M524.178 4608.935a32.744 32.744 0 0 1 5.155-14.045 24.486 24.486 0 0 1 3.911-4.622 13.307 13.307 0 0 1 3.2-2.311c1.422-.534 1.778 0 3.022.356 1.778.533 3.556-.179 5.333.71-1.067 1.777-4.266 1.955-6.044 2.666a20.074 20.074 0 0 0-7.111 6.222c-2.489 3.734-4.622 7.823-5.156 12.267-1.778 1.067-2.489-1.243-2.489-1.243z" class="cls-7" data-name="Path 45" transform="translate(-430.829 -4397.407)"/>
        <path id="Path_46" d="M1006.959 4098.449c-1.067-1.778 1.956-7.645 2.844-9.245.356-.889.889-2.133 1.956-2.311s.889.711 1.778 1.066c.533.178 2.133-.176 2.311.534.356.89-1.6 1.245-2.133 1.6-3.022 1.778-3.911 5.867-4.089 9.066a2.04 2.04 0 0 1-2.667-.71z" class="cls-7" data-name="Path 46" transform="translate(-827.746 -3985.584)"/>
        <path id="Path_47" d="M1739.6 4920.173c1.245-3.732 1.956-24.354-5.688-20.444-.711.357-3.911 1.245-3.911 2.135s2.311.71 2.844 1.066a6.273 6.273 0 0 1 2.844 3.2 19.11 19.11 0 0 1 2.311 10.312c-.178 1.776-1.777 5.333-1.777 5.866 0 1.422 1.777 1.956 3.2-2.133z" class="cls-7" data-name="Path 47" transform="translate(-1422.436 -4653.537)"/>
        <path id="Path_48" d="M1644.422 4231.494c1.244-3.556-.534-8.176-1.956-11.2-1.244-2.667-3.733-11.2-7.289-10.49-1.244.179-2.311 1.423-3.734 1.956-1.6.533-3.022 0-4.444 1.066.178 1.956 3.733.891 4.8 1.422 2.311 1.066 5.333 4.622 6.755 6.754 2.489 3.734 3.2 7.646 3.733 11.913 1.778 1.067 2.133-1.245 2.133-1.245z" class="cls-7" data-name="Path 48" transform="translate(-1337.747 -4086.632)"/>
        <path id="Path_49" d="M2131.411 4807.271c-.533-3.557-.889-7.288-2.667-10.312-.889-1.6-1.244-4.622-2.667-5.865-.888-.533-1.777 0-2.489 0-.888-.179-4.444-1.423-4.622.177-.178.711 3.022 2.844 3.377 3.379a23.085 23.085 0 0 1 6.578 14.042c1.778 1.068 2.488-1.243 2.488-1.243z" class="cls-7" data-name="Path 49" transform="translate(-1742.249 -4564.099)"/>
        <path id="Path_50" d="M1008 4949.663a37.218 37.218 0 0 1 3.2-15.111c1.6-3.377 4.8-9.778 8.711-10.844 1.244-.355 2.844.89 4.266 1.245.711 0 4.266-.178 4.089.89 0 1.066-6.044 2.487-7.111 3.021-3.555 1.956-5.688 5.334-7.289 8.888a29.781 29.781 0 0 0-3.2 12.978c-1.6 1.245-2.667-.89-2.667-.89z" class="cls-7" data-name="Path 50" transform="translate(-828.787 -4673.604)"/>
        <path id="Path_51" d="M873.527 4117.451c-27.555-17.955-38.577 12.089-25.6 29.866 12.8 17.243 16.71 8.889 21.866 9.244s10.311 9.6 26.488-11.022c12.088-15.288-2.489-40.177-22.755-27.91z" class="cls-8" data-name="Path 51" transform="translate(-692.715 -4006.188)"/>
        <path id="Path_52" d="M1663.652 5005.048c-19.733-14.935-29.688 7.288-20.8 21.155 8.711 13.688 12.088 7.466 16 8s7.289 7.645 20.444-6.933c9.777-10.846.178-30.222-15.644-22.222z" class="cls-8" data-name="Path 52" transform="translate(-1348.088 -4736.455)"/>
        <path id="Path_53" d="M861.766 5043.444c-26.31-19.021-44.443 15.644-26.133 34.843 16.355 17.244 19.2 8.533 24.888 8.533s15.288 9.956 30.4-14.934c11.379-18.663-5.689-45.508-29.155-28.442z" class="cls-8" data-name="Path 53" transform="translate(-680.954 -4767.564)"/>
        <path id="Path_54" d="M1560.021 4291.943c-37.155-15.289-43.554 23.287-24 41.6 19.2 17.955 22.044 6.755 28.444 6.045 6.222-.711 14.577 9.244 29.333-19.378 10.844-20.979-12.089-47.465-33.6-28.443z" class="cls-8" data-name="Path 54" transform="translate(-1254.056 -4148.68)"/>
        <path id="Path_55" d="M1981.963 4838.965c-46.932-17.245-53.865 33.421-28.621 55.109 24.71 21.333 28.621 5.155 36.443 3.91 7.644-1.244 25.421 10.49 37.51-25.242 9.6-27.911-19.2-58.844-45.332-33.955z" class="cls-8" data-name="Path 55" transform="translate(-1594.224 -4596.327)"/>
        <path id="Path_56" d="M320.879 4620.886c46.221-15.821 51.376 30.933 29.51 51.91-23.11 22.22-29.155 6.933-36.8 5.866s-21.866 12.088-37.866-23.822c-11.2-24.887 18.31-61.864 45.332-33.954z" class="cls-8" data-name="Path 56" transform="translate(-224.686 -4416.469)"/>
        <path id="Path_57" d="M864.955 4145.607a23.64 23.64 0 0 1-11.022-11.376 18.934 18.934 0 0 1-1.244-12.088c.533-1.779 4.089-9.778 6.578-9.6-17.244-1.776-22.577 20.8-12.089 35.2 12.8 17.244 16.711 8.889 21.866 9.245s10.311 9.6 26.488-11.023a21.06 21.06 0 0 0 3.378-6.577c-1.955 6.043-20.444 7.822-25.244 8.177a19.433 19.433 0 0 1-8.889-1.778z" class="cls-9" data-name="Path 57" transform="translate(-692.142 -4006.61)"/>
        <path id="Path_58" d="M1656.271 5022.908c-5.155 0-7.644-11.554-6.4-17.955.889-.89 1.778-3.022 3.556-4.267-12.089-1.243-16.889 14.934-9.778 25.956 8.711 13.689 12.089 7.466 16 8 3.733.533 7.289 7.646 20.266-6.755-7.289.888-15.467-5.868-23.644-4.979z" class="cls-9" data-name="Path 58" transform="translate(-1348.706 -4736.895)"/>
        <path id="Path_59" d="M882.685 5073.266c-10.311 2.489-20.622 3.911-30.932 2.489-9.066 0-15.466-15.465-12.8-27.02.889-3.912 2.667-9.246 6.755-11.735-16.888.712-24.888 25.245-10.667 40.355 16.355 17.245 19.2 8.531 24.888 8.531s15.288 9.957 30.4-14.931a23.9 23.9 0 0 0 2.133-4.267 20.645 20.645 0 0 1-9.777 6.4z" class="cls-9" data-name="Path 59" transform="translate(-680.54 -4766.807)"/>
        <path id="Path_60" d="M1586.722 4339.554c-11.555 2.489-20.622 1.245-30.932 1.245-10.311-1.245-19.2-14.221-17.955-27.021a10.238 10.238 0 0 1 7.465-9.778c-23.11 0-25.066 29.866-8.533 45.155 19.2 17.955 22.044 6.756 28.444 6.043 6.222-.71 14.577 9.244 29.332-19.376a24.385 24.385 0 0 0 2.667-9.6c-1.067 6.4-3.911 11.732-10.311 13.332z" class="cls-9" data-name="Path 60" transform="translate(-1254.625 -4164.116)"/>
        <path id="Path_61" d="M2019.779 4906.488c-1.6 1.778-3.555 3.556-5.333 5.333-8.889 8-17.6 3.554-28.444 3.022-11.733-.533-27.91-2.845-32.532-15.466-4.089-10.844-1.244-28.622 8.711-35.377-28.621 1.956-30.043 40.356-8.888 58.489 24.71 21.332 28.621 5.154 36.443 3.91 7.644-1.244 25.421 10.488 37.51-25.243a34.313 34.313 0 0 0 1.778-13.866c-.533 7.643-4.266 13.866-9.066 19.2z" class="cls-9" data-name="Path 61" transform="translate(-1594.174 -4624.563)"/>
        <path id="Path_62" d="M342.374 4673.183a42.577 42.577 0 0 1-16.888-2.133c-18.133-5.689-38.577-6.934-36.977-31.465.711-10.667 10.133-27.376 23.11-24.711-23.821-11.91-45.51 19.378-35.732 41.244 16 35.911 30.4 22.577 37.866 23.822 7.644 1.066 13.688 16.355 36.8-5.867a44.6 44.6 0 0 0 6.222-7.821 22.52 22.52 0 0 1-14.222 6.933z" class="cls-9" data-name="Path 62" transform="translate(-224.848 -4417.568)"/>
        <path id="Path_63" d="M575.79 4687.181c3.911 6.223 4.267 17.778-2.844 21.688-8.355 4.623-16.355-4.8-22.044-9.066-4.622-3.377-11.555-6.4-7.822-13.333 5.333-9.954 27.021-7.822 32.71.889z" class="cls-10" data-name="Path 63" transform="translate(-445.642 -4473.164)"/>
        <path id="Path_64" d="M1013.9 4149.493c6.4 7.11 2.133 20.8-8.355 13.333-2.844-1.956-14.4-7.823-13.688-11.378.356-2.133 9.6-5.511 11.733-5.511 4.8-.177 8.177 1.422 10.311 3.733z" class="cls-10" data-name="Path 64" transform="translate(-815.486 -4034.141)"/>
        <path id="Path_65" d="M1730.442 4341.365c-4.444-2.134-20.266-6.223-14.4-12.8a17.161 17.161 0 0 1 28.8 3.911c5.689 12.444-5.156 13.511-14.577 8.889z" class="cls-10" data-name="Path 65" transform="translate(-1409.901 -4179.258)"/>
        <path id="Path_66" d="M1776.752 5034.284c4.445 3.909 5.333 11.021-2.844 11.732-11.377.711-16-14.4-2.844-14.044a9.1 9.1 0 0 1 5.688 2.312z" class="cls-10" data-name="Path 66" transform="translate(-1449.633 -4762.668)"/>
        <path id="Path_67" d="M1015.038 5089.18c-5.156-7.467.889-9.955 7.466-13.865 9.955-5.689 23.288 6.576 17.066 16.533-4.977 7.999-20.087 3.552-24.532-2.668z" class="cls-10" data-name="Path 67" transform="translate(-832.981 -4797.122)"/>
        <path id="Path_68" d="M2194.136 4873.3c7.468 4.8 15.111 20.09 7.645 27.734-9.066 9.066-18.844-3.2-27.021-6.578-31.466-12.976 5.333-30.22 19.376-21.156z" class="cls-10" data-name="Path 68" transform="translate(-1777.954 -4630.131)"/>
    </g>
</svg>
